<?xml version="1.0" encoding="UTF-8" standalone="no"?>
<svg
   xmlns:dc="http://purl.org/dc/elements/1.1/"
   xmlns:cc="http://creativecommons.org/ns#"
   xmlns:rdf="http://www.w3.org/1999/02/22-rdf-syntax-ns#"
   xmlns:svg="http://www.w3.org/2000/svg"
   xmlns="http://www.w3.org/2000/svg"
   xmlns:sodipodi="http://sodipodi.sourceforge.net/DTD/sodipodi-0.dtd"
   xmlns:inkscape="http://www.inkscape.org/namespaces/inkscape"
   version="1.1"
   x="0px"
   y="0px"
   viewBox="0 0 512 640"
   style="enable-background:new 0 0 512 512;"
   xml:space="preserve"
   id="svg64"
   sodipodi:docname="laptop-love.svg"
   inkscape:version="0.92.2 5c3e80d, 2017-08-06"><metadata
     id="metadata70"><rdf:RDF><cc:Work
         rdf:about=""><dc:format>image/svg+xml</dc:format><dc:type
           rdf:resource="http://purl.org/dc/dcmitype/StillImage" /></cc:Work></rdf:RDF></metadata><defs
     id="defs68" /><sodipodi:namedview
     pagecolor="#ffffff"
     bordercolor="#666666"
     borderopacity="1"
     objecttolerance="10"
     gridtolerance="10"
     guidetolerance="10"
     inkscape:pageopacity="0"
     inkscape:pageshadow="2"
     inkscape:window-width="1383"
     inkscape:window-height="851"
     id="namedview66"
     showgrid="false"
     inkscape:snap-global="false"
     inkscape:zoom="1.0429825"
     inkscape:cx="198.47267"
     inkscape:cy="410.26243"
     inkscape:window-x="0"
     inkscape:window-y="0"
     inkscape:window-maximized="0"
     inkscape:current-layer="g62" /><g
     id="g62"><g
       id="g60"
       transform="translate(5.4237288,-1.3559322)"><g
         id="g4"><path
           d="m 372.228,472.997 h -234.19 c -0.649,0 -1.291,-0.0919 -1.886,-0.26964 L 32.067,441.63362 c -1.724,-0.51527 -2.838,-1.68165 -2.838,-2.97222 v -14.28615 c 0,-1.79005 2.117706,-3.32336 4.724,-3.24186 130.97492,4.09589 276.98439,4.58142 444.094,0 2.60692,-0.0715 4.725,1.45112 4.725,3.24186 v 14.95922 c 0,1.30567 -1.143,2.4844 -2.898,2.98937 l -105.82,30.42136 c -0.578,0.16604 -1.2,0.2518 -1.826,0.2518 z m -233.207,-6.48304 h 232.257 l 102.045,-29.33593 v -9.5616 H 38.677 v 8.92078 z"
           id="path2"
           inkscape:connector-curvature="0"
           sodipodi:nodetypes="ssccssssssccsccccccc"
           style="fill:#666666;fill-opacity:1;stroke-width:0.82831651" /></g><g
         id="g8"><path
           d="M 328.06636,451.47319 H 186.64538 c -2.297,0 -4.15996,-0.74927 -4.15996,-1.67391 v -10.0424 c 0,-0.92428 1.86296,-1.67391 4.15996,-1.67391 h 141.42098 c 2.297,0 4.15908,0.74927 4.15908,1.67391 v 10.0424 c 0,0.92464 -1.8612,1.67391 -4.15908,1.67391 z m -137.26102,-3.34747 h 133.10194 v -6.69458 H 190.80534 Z"
           id="path6"
           inkscape:connector-curvature="0"
           style="fill:#666666;fill-opacity:1;stroke-width:0.55848151" /></g><g
         id="g20"><g
           id="g18"><path
             d="m 184.8061,345.84664 c -6.1445,0 -13.97813,-0.78913 -20.05607,-6.93879 -6.72324,-6.80167 -6.33931,-18.25848 0.85714,-25.54052 3.84904,-3.8923 7.89938,-5.70624 12.74598,-5.70624 0.78247,0 1.59092,0.0476 2.43832,0.14535 -0.55357,-5.06573 0.46267,-10.26696 5.49677,-15.35979 3.60959,-3.65169 8.50328,-5.74565 13.42537,-5.74565 4.52842,0 8.73055,1.72772 11.83283,4.86701 8.43752,8.53595 7.25164,20.66612 5.87745,34.71123 -0.43182,4.40798 -0.87744,8.96624 -1.08279,13.78398 -0.0852,2.0102 -1.67777,3.62049 -3.6656,3.70835 -4.7557,0.20858 -9.2549,0.65775 -13.60556,1.09133 -5.06576,0.50583 -9.84987,0.98374 -14.26384,0.98374 z m -6.45376,-30.42641 c -2.78978,0 -4.91154,0.99524 -7.32226,3.43409 -4.20537,4.25606 -4.59011,10.79085 -0.85633,14.56818 3.23215,3.26904 7.60879,4.66501 14.63316,4.66501 4.03572,0 8.6372,-0.45985 13.50897,-0.94598 3.39855,-0.33913 6.88395,-0.68813 10.55198,-0.93037 0.24026,-3.71821 0.58604,-7.25166 0.92289,-10.6956 1.27923,-13.0745 2.20293,-22.52194 -3.66884,-28.46138 -1.65342,-1.67188 -3.93021,-2.59322 -6.40911,-2.59322 -2.90342,0 -5.81983,1.2654 -8.00165,3.47268 -3.71917,3.76255 -4.24677,6.99135 -2.26137,13.81765 0.3961,1.3623 0.0252,2.83464 -0.96754,3.83974 -0.99269,1.00345 -2.44806,1.3779 -3.79384,0.978 -2.62825,-0.78421 -4.64125,-1.1488 -6.33606,-1.1488 z"
             id="path16"
             inkscape:connector-curvature="0"
             style="fill:#e589b6;fill-opacity:1;stroke-width:0.81641132" /></g></g><g
         id="g26"><g
           id="g24"><path
             d="m 311.60527,320.53812 c -2.98255,0 -6.21615,-0.33604 -9.63887,-0.69225 -2.94198,-0.30665 -5.98537,-0.62309 -9.20143,-0.7695 -1.34245,-0.06 -2.41739,-1.19084 -2.4755,-2.60303 -0.13923,-3.37713 -0.43908,-6.57212 -0.72905,-9.6622 -0.9253,-9.85991 -1.72507,-18.37623 3.97471,-24.36964 2.09562,-2.20358 4.93455,-3.4169 7.99439,-3.4169 3.3224,0 6.62233,1.46693 9.05562,4.02558 3.39915,3.57483 4.08545,7.22575 3.7116,10.78157 0.57228,-0.0686 1.11825,-0.10144 1.64668,-0.10144 3.27361,0 6.00839,1.27269 8.60668,4.0054 2.32804,2.44682 3.68638,5.63547 3.82506,8.97859 0.14253,3.43189 -1.00806,6.61363 -3.23798,8.95842 -4.10135,4.31205 -9.38617,4.8654 -13.53191,4.8654 z m -16.26943,-6.76809 c 2.48153,0.17119 4.84081,0.41673 7.1409,0.65594 3.29171,0.34296 6.40143,0.66574 9.12743,0.66574 4.73886,0 7.68961,-0.97757 9.86964,-3.27049 1.19171,-1.25253 1.80455,-2.98173 1.72562,-4.86944 -0.0822,-1.97878 -0.90283,-3.88378 -2.31215,-5.36571 -1.62804,-1.71192 -3.06038,-2.40935 -4.94496,-2.40935 -1.14456,0 -2.504,0.25534 -4.27895,0.80465 -0.90775,0.28013 -1.89115,0.0185 -2.5621,-0.68649 -0.6704,-0.70494 -0.92146,-1.739 -0.65341,-2.69468 1.34135,-4.79219 0.98504,-7.0586 -1.52663,-9.69909 -1.46907,-1.54475 -3.43478,-2.43011 -5.39281,-2.43011 -1.67628,0 -3.21442,0.6473 -4.33212,1.82201 -3.96704,4.17141 -3.34488,10.80405 -2.48262,19.98381 0.22803,2.41281 0.45991,4.88845 0.62216,7.49321 z"
             id="path22"
             inkscape:connector-curvature="0"
             style="fill:#e589b6;fill-opacity:1;stroke-width:0.56210357" /></g></g><g
         id="g36"><g
           id="g30"><path
             d="M 421.354,406.855 H 90.646 c -2.609,0 -4.724,-2.115 -4.724,-4.725 V 156.462 c 0,-2.609 2.115,-4.725 4.724,-4.725 h 125.94 c 25.68784,0.39304 36.21019,0.26462 50.298,0 h 154.47 c 2.609,0 4.725,2.115 4.725,4.725 v 245.669 c 0,2.609 -2.115,4.724 -4.725,4.724 z M 95.37,397.406 H 416.63 V 161.186 H 273.291 c -25.14509,0.16858 -34.59476,0.001 -177.921,0.001 z"
             id="path28"
             inkscape:connector-curvature="0"
             sodipodi:nodetypes="sssssccsssscccccc"
             style="fill:#666666;fill-opacity:1" /></g><g
           id="g34"><path
             d="m 188.94692,236.09804 c -7.2751,0 -16.53456,-0.94484 -23.62261,-8.31196 -3.75688,-3.90479 -5.69432,-9.21082 -5.45633,-14.94189 0.23464,-5.62376 2.54749,-10.99111 6.51286,-15.1126 4.4313,-4.60645 9.07376,-6.75255 14.60852,-6.75255 1.50369,0 3.09654,0.15677 4.84694,0.48148 -0.68849,-4.03788 -0.73743,-8.35238 0.93855,-12.57839 1.06324,-2.68541 2.73185,-5.18757 5.09967,-7.64862 4.15912,-4.32286 9.78907,-6.80203 15.44651,-6.80203 5.16604,0 9.95466,2.02068 13.4836,5.68926 2.43822,2.53352 4.25632,5.40915 5.55889,8.79135 3.57655,9.28329 2.49252,20.67435 1.23688,33.86451 -0.53363,5.60425 -1.08537,11.40012 -1.34079,17.54717 -0.0704,1.70643 -1.38503,3.07283 -3.02749,3.14669 -5.90615,0.26547 -11.47309,0.83684 -16.85701,1.38939 -6.20448,0.63686 -12.06505,1.23819 -17.42819,1.23819 z m -7.95756,-38.53507 c -3.84738,0 -6.87688,1.44235 -10.12962,4.82385 -2.8418,2.95368 -4.49767,6.76789 -4.66325,10.74166 -0.1609,3.86577 1.11955,7.41799 3.60604,10.00167 4.30526,4.47476 10.03041,6.38396 19.14372,6.38396 5.0514,0 10.76114,-0.586 16.80606,-1.20614 4.59688,-0.47173 9.32449,-0.95739 14.32629,-1.26188 0.29363,-5.20778 0.7629,-10.13058 1.21743,-14.9175 1.17453,-12.33103 2.18749,-22.98001 -0.81319,-30.76869 -0.9781,-2.53909 -2.33765,-4.69216 -4.15777,-6.58323 -2.33297,-2.42482 -5.53141,-3.76056 -9.00471,-3.76056 -3.99017,0 -7.98772,1.77681 -10.96762,4.87402 -1.76514,1.83325 -2.98257,3.63235 -3.72134,5.49973 -1.37297,3.46234 -1.21543,7.40336 0.541,13.60406 0.32782,1.15597 0.0215,2.406 -0.79844,3.25748 -0.81989,0.85147 -2.0219,1.17129 -3.13408,0.82987 -3.38548,-1.03543 -6.00738,-1.5183 -8.25052,-1.5183 z"
             id="path32"
             inkscape:connector-curvature="0"
             style="fill:#e589b6;fill-opacity:1;stroke-width:0.6834619" /></g></g><g
         id="g46"><g
           id="g40"><path
             d="m 459.149,388.59707 c -143.02193,-7.11621 -277.73185,-6.43852 -406.298,0 -2.605287,0.13046 -4.725,-1.98317 -4.725,-4.43049 V 147.38663 C 48.126,128.94457 64.127,113.94 83.795,113.94 h 218.38 c 2.486,0 4.604,1.80783 4.771,4.13418 0.041,0.58979 0.081,1.16927 0.118,1.73844 6.61,0.37318 12.867,0.9536 18.954,1.51808 8.139,0.75483 15.828,1.46839 22.617,1.46839 12.1,0 19.693,-2.26541 25.393,-7.57167 0.885,-0.82421 2.081,-1.28742 3.329,-1.28742 h 50.848 c 19.668,0 35.669,15.00457 35.669,33.44663 v 236.77995 c 0,2.44732 -2.11867,4.56017 -4.725,4.43049 z M 57.575,379.73704 h 396.85 V 147.38756 c 0,-13.5568 -11.762,-24.58753 -26.22,-24.58753 h -48.982 c -9.435,7.8164 -21.228,8.85815 -30.587,8.85909 -7.255,0 -15.169,-0.7342 -23.548,-1.51153 -7.26,-0.67324 -14.768,-1.36899 -22.725,-1.69249 -2.449,-0.0985 -4.411,-1.93816 -4.517,-4.23544 -0.021,-0.47071 -0.045,-0.9433 -0.069,-1.42057 H 83.795 c -14.458,0 -26.221,11.02979 -26.221,24.58754 v 232.35041 z"
             id="path38"
             inkscape:connector-curvature="0"
             sodipodi:nodetypes="sssssscccscsssssccssccccccsscc"
             style="fill:#666666;fill-opacity:1;stroke-width:0.96833271" /></g><g
           id="g44"><path
             d="m 348.64,132.837 c -0.002,0 -0.003,0 -0.004,0 -7.254,0 -15.168,-0.783 -23.547,-1.612 -7.261,-0.718 -14.77,-1.46 -22.726,-1.805 -2.449,-0.105 -4.411,-2.067 -4.517,-4.517 -0.082,-1.902 -0.188,-3.839 -0.329,-5.923 -0.389,-5.809 -0.938,-11.382 -1.471,-16.772 -2.236,-22.655 -4.168,-42.221 9.305,-55.693 4.845,-4.844 11.416,-7.512 18.503,-7.512 7.739,0 15.437,3.257 21.115,8.936 8.338,8.339 9.903,16.665 8.368,25.993 2.14,-0.352 4.108,-0.522 5.979,-0.522 7.589,0 13.947,2.825 20.013,8.89 11.325,11.325 11.973,29.106 1.443,39.637 -0.04,0.04 -0.095,0.092 -0.146,0.139 -9.653,9.536 -22.16,10.761 -31.986,10.761 z m -41.576,-12.633 c 6.61,0.398 12.867,1.017 18.955,1.619 8.14,0.805 15.828,1.565 22.617,1.566 h 0.002 c 12.099,0 19.69,-2.415 25.39,-8.075 0.038,-0.037 0.094,-0.091 0.145,-0.138 6.763,-6.787 6.109,-18.561 -1.524,-26.195 -4.291,-4.291 -8.277,-6.122 -13.331,-6.122 -2.979,0 -6.471,0.62 -10.992,1.951 -1.66,0.489 -3.451,0.032 -4.676,-1.192 -1.223,-1.223 -1.679,-3.016 -1.19,-4.675 3.47,-11.785 2.456,-17.695 -4.17,-24.322 -3.921,-3.921 -9.183,-6.169 -14.435,-6.169 -4.563,0 -8.762,1.686 -11.822,4.745 -10.311,10.311 -8.665,26.98 -6.582,48.083 0.539,5.463 1.098,11.112 1.496,17.07 0.04,0.629 0.08,1.247 0.117,1.854 z"
             id="path42"
             inkscape:connector-curvature="0"
             style="fill:#e589b6;fill-opacity:1" /></g></g><g
         id="g50"><path
           d="m 410.65209,368.38303 h -101.43 c -2.15438,0 -3.90167,-1.20459 -3.90167,-2.6911 0,-1.48651 1.74646,-2.6911 3.90167,-2.6911 h 101.43082 c 2.15438,0 3.90167,1.20459 3.90167,2.6911 0,1.48651 -1.74729,2.6911 -3.90249,2.6911 z"
           id="path48"
           inkscape:connector-curvature="0"
           style="fill:#666666;fill-opacity:1;stroke-width:0.68578506" /></g><g
         id="g54"><path
           d="m 291.98563,368.58461 c -0.80414,0 -1.58441,-0.32888 -2.15704,-0.89635 -0.56619,-0.56618 -0.88926,-1.35226 -0.88926,-2.15704 0,-0.79769 0.32307,-1.58377 0.88926,-2.15059 0.56682,-0.56683 1.3529,-0.88926 2.15704,-0.88926 0.80413,0 1.59021,0.32243 2.15768,0.88926 0.56619,0.56682 0.88926,1.3529 0.88926,2.15059 0,0.80478 -0.32307,1.59086 -0.88926,2.15704 -0.57327,0.56812 -1.35355,0.89635 -2.15768,0.89635 z"
           id="path52"
           inkscape:connector-curvature="0"
           style="fill:#666666;fill-opacity:1;stroke-width:0.64485544" /></g><g
         id="g58"><path
           d="M 468.599,472.997 H 43.401 c -2.609,0 -4.724,-2.115 -4.724,-4.725 0,-2.61 2.115,-4.725 4.724,-4.725 h 425.197 c 2.609,0 4.725,2.115 4.725,4.725 0,2.61 -2.115,4.725 -4.724,4.725 z"
           id="path56"
           inkscape:connector-curvature="0"
           style="fill:#666666;fill-opacity:1" /></g></g></g></svg>
